<svg width="100" height="100" viewBox="0 0 100 100" fill="none" xmlns="http://www.w3.org/2000/svg">
<rect width="100" height="100" rx="4" fill="white"/>
<path fill-rule="evenodd" clip-rule="evenodd" d="M4 100C1.79086 100 0 98.2091 0 96V4C0 1.79086 1.79086 0 4 0H96C98.2091 0 100 1.79086 100 4V96C100 98.2091 98.2091 100 96 100H4ZM37.7113 12.6305C36.8821 10.0486 38.808 7.40741 41.5197 7.40741H88.5926C90.8017 7.40741 92.5926 9.19827 92.5926 11.4074V15.9546C92.5926 18.1638 90.8017 19.9546 88.5926 19.9546H47.4747C45.4292 19.9546 43.771 21.6129 43.771 23.6584V23.6584C43.771 25.7039 45.4292 27.3621 47.4747 27.3621H60.8148C63.024 27.3621 64.8148 29.1529 64.8148 31.3621V74.4535C64.8148 76.6626 63.024 78.4535 60.8148 78.4535H44.0673C41.8582 78.4535 40.0673 80.2443 40.0673 82.4535V88.5926C40.0673 90.8017 38.2765 92.5926 36.0673 92.5926H27.8396C24.7977 92.5926 22.869 89.3317 24.3342 86.6659L46.9553 45.5088C47.485 44.5452 47.5946 43.406 47.2584 42.3591L37.7113 12.6305ZM27.7735 13.3876C29.2929 10.721 27.3671 7.40741 24.2981 7.40741H11.4074C9.19826 7.40741 7.40741 9.19827 7.40741 11.4074V40.6917C7.40741 42.9976 10.4748 43.7941 11.5966 41.7794V41.7794L27.7735 13.3876ZM7.91265 63.6219C7.58132 64.2169 7.40741 64.8868 7.40741 65.5678V89.3146C7.40741 91.125 8.87501 92.5926 10.6854 92.5926V92.5926C11.8812 92.5926 12.9821 91.9414 13.5581 90.8935L34.2516 53.2434C35.7168 50.5776 33.7881 47.3167 30.7462 47.3167H19.3427C17.8914 47.3167 16.554 48.1028 15.8479 49.3708L7.91265 63.6219ZM47.4747 89.2267C47.4747 91.0856 48.9817 92.5926 50.8406 92.5926H89.2267C91.0856 92.5926 92.5926 91.0856 92.5926 89.2267V89.2267C92.5926 87.3678 91.0856 85.8609 89.2267 85.8609H50.8406C48.9817 85.8609 47.4747 87.3678 47.4747 89.2267V89.2267ZM88.5926 78.4535C90.8017 78.4535 92.5926 76.6626 92.5926 74.4535V31.3621C92.5926 29.1529 90.8017 27.3621 88.5926 27.3621H76.2222C74.0131 27.3621 72.2222 29.1529 72.2222 31.3621V74.4535C72.2222 76.6626 74.0131 78.4535 76.2222 78.4535H88.5926ZM37.0143 34.6863C37.8434 37.2681 35.9176 39.9093 33.2059 39.9093H28.0705C25.0015 39.9093 23.0757 36.5957 24.5951 33.9291L27.8793 28.165C29.6025 25.1406 34.0989 25.608 35.1632 28.9221L37.0143 34.6863Z" fill="#24AFB8"/>
</svg>
