<svg width="100" height="100" viewBox="0 0 100 100" fill="none" xmlns="http://www.w3.org/2000/svg">
<rect width="100" height="100" fill="white"/>
<path fill-rule="evenodd" clip-rule="evenodd" d="M0 100V0H100V100H0ZM36.0339 7.40741H92.5926V19.9546H43.771V27.3621H64.8148V78.4535H40.0673V92.5926H21.0767L47.7851 43.9992L36.0339 7.40741ZM31.1809 7.40741H7.40741V49.3029L11.5966 41.7794L31.1809 7.40741ZM7.40741 64.5293V92.5926H12.6242L37.5091 47.3167H16.9917L7.40741 64.5293ZM47.4747 92.5926H92.5926V85.8609H47.4747V92.5926ZM92.5926 78.4535V27.3621H72.2222V78.4535H92.5926ZM38.6916 39.9093H21.1878L32.3821 20.2621L38.6916 39.9093Z" fill="#2C7E83"/>
</svg>
